# xmcd
#
# Track frame offsets: 
#        150
#        22985
#        40767
#        61175
#        81023
#        96856
#        111556
#        127056
#        141412
#        153297
#        169191
#        181896
#
# Disc length: 2625 seconds
#
# Revision: 0
# Processed by: cddbd v1.5.2PL0 Copyright (c) Steve Scherf et al.
# Submitted via: ExactAudioCopy v0.99pb5
#
DISCID=9d0a3f0c
DTITLE=Wylie and the Wild West - Raven on the Wind
DYEAR=2011
DGENRE=Country
TTITLE0=Punchy
TTITLE1=Raven on the Wind
TTITLE2=Circle
TTITLE3=The Maestro
TTITLE4=Horseback Cadillac
TTITLE5=Hills of Almota
TTITLE6=I Believe in Love
TTITLE7=Rip This Joint
TTITLE8=Hi-Line Polka
TTITLE9=Wicked Kiss
TTITLE10=Wild Mustang
TTITLE11=Sweet Old Song
EXTD=
EXTT0=
EXTT1=
EXTT2=
EXTT3=
EXTT4=
EXTT5=
EXTT6=
EXTT7=
EXTT8=
EXTT9=
EXTT10=
EXTT11=
PLAYORDER=
